<?xml version="1.0" encoding="utf-8"?>
<!-- Generator: Adobe Illustrator 18.1.0, SVG Export Plug-In . SVG Version: 6.00 Build 0)  -->
<!DOCTYPE svg PUBLIC "-//W3C//DTD SVG 1.1//EN" "http://www.w3.org/Graphics/SVG/1.1/DTD/svg11.dtd">
<svg version="1.1" id="Layer_1" xmlns="http://www.w3.org/2000/svg" xmlns:xlink="http://www.w3.org/1999/xlink" x="0px" y="0px"
     width="80px" height="144px" viewBox="0 0 80 144" style="fill: #fff;"  xml:space="preserve">
<g>
  <g >
    <path d="M28.2,132V92.6l-13.6-8v56.2C8,140.8,1,127.8,1,113.4V34.7
			C1,17.5,2.3,2,28.8,2C16.9,5.8,14.6,18.3,14.6,26.2v42.4l27.2,16.1v28C41.9,131.4,28.2,132,28.2,132z"/>
	</g>
	<g>
		<path d="M55.6,16.6v25.9L42,51.7V9.6c0,0-13.6-0.4-13.6,25.7v24l27.2,16.1v43
			c0,7.9-2.3,19.9-14.1,23.6c26.4,0,27.8-15.6,27.8-32.9V66.6l-15.2-8.3L70,48.1V32.4c0-11.8,9.2-15.9,9.2-15.9L55.6,16.6L55.6,16.6
			z"/>
	</g>
</g>
</svg>
